<svg width="24" height="24" viewBox="0 0 24 24" fill="none" xmlns="http://www.w3.org/2000/svg">
<path d="M4.52552 18.6452C4.70003 18.8419 4.88255 19.032 5.07276 19.2149C6.25015 20.3475 7.72221 21.2069 9.41183 21.6596C14.7465 23.0891 20.2299 19.9232 21.6593 14.5886C23.0887 9.25391 19.9229 3.77054 14.5882 2.34112C9.25355 0.911702 3.77018 4.07753 2.34076 9.41219C1.88647 11.1077 1.89633 12.8181 2.29247 14.4087C2.35488 14.6593 2.42688 14.9069 2.50816 15.1511" stroke="white" stroke-width="1.5" stroke-linecap="round"/>
<path d="M17.5985 8.12421C17.7722 7.7482 17.6083 7.30253 17.2323 7.12876C16.8563 6.95499 16.4106 7.11893 16.2368 7.49494L17.5985 8.12421ZM19.525 18.6058C17.8116 16.9261 16.75 14.5877 16.75 12H15.25C15.25 15.007 16.4856 17.7268 18.475 19.677L19.525 18.6058ZM16.2368 7.49494C15.6032 8.8661 15.25 10.3928 15.25 12H16.75C16.75 10.6145 17.0541 9.30213 17.5985 8.12421L16.2368 7.49494Z" fill="white"/>
<path d="M7.54942 16.8503C7.35598 17.2165 6.90224 17.3566 6.53597 17.1632C6.1697 16.9697 6.0296 16.516 6.22304 16.1497L7.54942 16.8503ZM5.51965 4.4592C7.51035 6.37207 8.75 9.04329 8.75 12H7.25C7.25 9.47272 6.19238 7.18589 4.48035 5.5408L5.51965 4.4592ZM6.22304 16.1497C6.87937 14.907 7.25 13.4967 7.25 12H8.75C8.75 13.7477 8.31656 15.3977 7.54942 16.8503L6.22304 16.1497Z" fill="white"/>
<path d="M12 2V22" stroke="white" stroke-width="1.5" stroke-linecap="round"/>
<path d="M22 12L2 12" stroke="white" stroke-width="1.5" stroke-linecap="round"/>
</svg>
