<svg width="192" height="192" viewBox="0 0 192 192" fill="none" xmlns="http://www.w3.org/2000/svg">
<path d="M97.8887 80C93.6452 80 89.5758 81.686 86.5752 84.6865C83.5746 87.6871 81.8887 91.7566 81.8887 96C81.8887 97.5913 82.5213 99.117 83.6465 100.242C84.7717 101.367 86.2974 102 87.8887 102C89.48 102 91.0066 101.367 92.1318 100.242C93.2568 99.117 93.8887 97.5911 93.8887 96C93.8887 94.9392 94.3104 93.922 95.0605 93.1719C95.8107 92.4217 96.8278 92 97.8887 92C98.9495 92 99.9667 92.4218 100.717 93.1719C101.467 93.922 101.889 94.9391 101.889 96C101.891 112.431 97.8508 128.61 90.124 143.11C89.7393 143.806 89.4966 144.571 89.4102 145.361C89.3237 146.151 89.395 146.951 89.6201 147.713C89.8453 148.475 90.2197 149.186 90.7217 149.803C91.2236 150.419 91.8431 150.93 92.5439 151.305C93.2448 151.68 94.0134 151.911 94.8047 151.986C95.5961 152.062 96.3951 151.98 97.1543 151.744C97.9134 151.508 98.6182 151.124 99.2275 150.613C99.8369 150.103 100.339 149.476 100.704 148.77C109.359 132.527 113.886 114.405 113.889 96C113.889 91.7565 112.203 87.6871 109.202 84.6865C106.202 81.686 102.132 80 97.8887 80ZM125.304 122.2C124.541 122.001 123.746 121.955 122.965 122.063C122.184 122.172 121.433 122.434 120.753 122.833C120.073 123.232 119.478 123.761 119.003 124.391C118.528 125.02 118.181 125.737 117.983 126.5C116.875 130.714 115.54 134.865 113.983 138.935C113.415 140.42 113.461 142.07 114.108 143.522C114.756 144.975 115.954 146.11 117.438 146.68C118.122 146.945 118.85 147.081 119.584 147.08C120.799 147.08 121.985 146.712 122.985 146.023C123.986 145.335 124.754 144.359 125.188 143.225C126.905 138.748 128.373 134.179 129.584 129.54C129.786 128.777 129.835 127.981 129.729 127.199C129.624 126.417 129.364 125.663 128.967 124.981C128.569 124.3 128.041 123.703 127.412 123.226C126.784 122.748 126.067 122.4 125.304 122.2ZM86.9385 110.165C86.1716 109.982 85.3761 109.953 84.5977 110.077C83.8192 110.202 83.0728 110.478 82.4014 110.892C81.7299 111.305 81.1466 111.846 80.6846 112.485C80.2226 113.124 79.8911 113.848 79.709 114.615C77.7842 122.706 74.5982 130.444 70.2686 137.545C69.4411 138.904 69.1875 140.537 69.5635 142.083C69.9395 143.629 70.9144 144.963 72.2734 145.79C73.6327 146.618 75.2653 146.871 76.8115 146.495C78.3577 146.119 79.6911 145.144 80.5186 143.785C85.5007 135.612 89.1688 126.706 91.3887 117.395C91.5715 116.628 91.6022 115.832 91.4775 115.054C91.3529 114.275 91.0753 113.529 90.6621 112.857C90.2488 112.186 89.7072 111.603 89.0684 111.141C88.4295 110.679 87.7055 110.347 86.9385 110.165ZM78.1875 67.751C76.6237 67.6461 75.0804 68.1568 73.8887 69.1748C70.1168 72.5527 67.0988 76.6877 65.0312 81.3096C62.9638 85.9314 61.8929 90.9368 61.8887 96C61.8915 106.213 59.2897 116.258 54.3291 125.185C53.5541 126.577 53.3634 128.22 53.7998 129.753C54.2363 131.286 55.2639 132.582 56.6562 133.357C58.0486 134.133 59.692 134.323 61.2246 133.887C62.7572 133.45 64.054 132.423 64.8291 131.03C70.7788 120.314 73.8966 108.257 73.8887 96C73.8917 92.6243 74.606 89.2866 75.9844 86.2051C77.3627 83.1238 79.3744 80.3674 81.8887 78.1152C83.0322 77.0435 83.7114 75.5667 83.7803 74.001C83.8491 72.4352 83.302 70.9043 82.2568 69.7363C81.2117 68.5684 79.7512 67.8559 78.1875 67.751ZM97.8887 40C83.0899 40.0156 68.8978 45.8823 58.4072 56.3203C47.9167 66.7584 41.9785 80.9212 41.8887 95.7197V96.0049C41.8897 100.753 41.0431 105.464 39.3887 109.915C39.1082 110.655 38.9765 111.443 39.002 112.234C39.0274 113.025 39.2097 113.804 39.5371 114.524C39.8646 115.245 40.3311 115.893 40.9102 116.433C41.4893 116.972 42.1701 117.392 42.9121 117.667C43.6539 117.942 44.4428 118.068 45.2334 118.037C46.0242 118.006 46.8013 117.819 47.5195 117.486C48.2377 117.154 48.8836 116.683 49.4189 116.1C49.9541 115.517 50.3685 114.834 50.6387 114.09C52.7579 108.393 53.858 102.368 53.8887 96.29V96.0049C53.8556 84.3354 58.4594 73.1305 66.6875 64.8555C74.9156 56.5805 86.0942 51.9131 97.7637 51.8799C109.433 51.8467 120.638 56.4506 128.913 64.6787C137.188 72.9068 141.855 84.0854 141.889 95.7549V96.0049C141.892 106.327 140.762 116.62 138.519 126.695C138.171 128.248 138.455 129.875 139.308 131.219C140.16 132.562 141.511 133.513 143.063 133.86C143.498 133.957 143.943 134.004 144.389 134C145.751 133.999 147.073 133.534 148.137 132.682C149.2 131.829 149.941 130.639 150.238 129.31C152.651 118.463 153.875 107.387 153.889 96.2754V96.0049C153.873 81.1573 147.968 66.9222 137.47 56.4229C126.971 45.9235 112.736 40.0172 97.8887 40ZM97.8887 60C96.2974 60 94.7717 60.6326 93.6465 61.7578C92.5213 62.883 91.8887 64.4087 91.8887 66C91.8887 67.5913 92.5213 69.117 93.6465 70.2422C94.7717 71.3674 96.2974 72 97.8887 72C104.252 72.0066 110.352 74.5377 114.852 79.0371C119.351 83.5365 121.882 89.6368 121.889 96C121.889 99.8099 121.708 103.66 121.354 107.435C121.276 108.221 121.354 109.015 121.584 109.771C121.814 110.527 122.19 111.231 122.692 111.841C123.195 112.451 123.812 112.956 124.51 113.326C125.208 113.697 125.972 113.925 126.759 114H127.329C128.821 113.998 130.259 113.44 131.361 112.436C132.464 111.431 133.153 110.051 133.294 108.565C133.689 104.415 133.884 100.185 133.884 96C133.873 86.4564 130.078 77.3065 123.33 70.5576C116.582 63.8087 107.432 60.0119 97.8887 60Z" fill="#D9D9D9"/>
</svg>
